# xmcd CD database file
#
# Track frame offsets:
#	150
#	7718
#	25482
#	51102
#	71425
#	92185
#	97155
#	128371
#	152160
#	160450
#	177387
#	204954
#	225298
#
# Disc length: 3288 seconds
#
# Revision: 0
# Processed by: cddbd v1.5.2PL0 Copyright (c) Steve Scherf et al.
# Submitted via: CDex 1.51
#
DISCID=9b0cd60d
DTITLE=Cheikh Ndoye - A Child's Tale
DYEAR=2008
DGENRE=Jazz
TTITLE0=Siguil
TTITLE1=A Child's Tale
TTITLE2=Night Beat
TTITLE3=Alchemy West
TTITLE4=Rewmi
TTITLE5=Bass Traffic
TTITLE6=Hands On
TTITLE7=Alternatives
TTITLE8=Sentu
TTITLE9=Alchemy East
TTITLE10=Amine
TTITLE11=Setsima
TTITLE12=Saints
EXTD=YEAR: 2008
EXTT0=
EXTT1=
EXTT2=
EXTT3=
EXTT4=
EXTT5=
EXTT6=
EXTT7=
EXTT8=
EXTT9=
EXTT10=
EXTT11=
EXTT12=
PLAYORDER=
